<svg width="335" height="370" viewBox="0 0 335 370" fill="none" xmlns="http://www.w3.org/2000/svg">
<line x1="167.5" y1="46" x2="167.5" y2="370" stroke="#FEFEFE"/>
<path d="M13.1932 8.81818H16.3636V27.5341C16.3636 29.2045 16.0568 30.6236 15.4432 31.7912C14.8295 32.9588 13.9645 33.8452 12.848 34.4503C11.7315 35.0554 10.4148 35.358 8.89773 35.358C7.46591 35.358 6.19176 35.098 5.07528 34.5781C3.95881 34.0497 3.08097 33.2997 2.44176 32.3281C1.80256 31.3565 1.48295 30.2017 1.48295 28.8636H4.60227C4.60227 29.6051 4.78551 30.2528 5.15199 30.8068C5.52699 31.3523 6.03835 31.7784 6.68608 32.0852C7.33381 32.392 8.07102 32.5455 8.89773 32.5455C9.80966 32.5455 10.5852 32.3537 11.2244 31.9702C11.8636 31.5866 12.3494 31.0241 12.6818 30.2827C13.0227 29.5327 13.1932 28.6165 13.1932 27.5341V8.81818ZM44.8082 21.9091C44.8082 24.6705 44.3097 27.0568 43.3125 29.0682C42.3153 31.0795 40.9474 32.6307 39.2088 33.7216C37.4702 34.8125 35.4844 35.358 33.2514 35.358C31.0185 35.358 29.0327 34.8125 27.294 33.7216C25.5554 32.6307 24.1875 31.0795 23.1903 29.0682C22.1932 27.0568 21.6946 24.6705 21.6946 21.9091C21.6946 19.1477 22.1932 16.7614 23.1903 14.75C24.1875 12.7386 25.5554 11.1875 27.294 10.0966C29.0327 9.00568 31.0185 8.46023 33.2514 8.46023C35.4844 8.46023 37.4702 9.00568 39.2088 10.0966C40.9474 11.1875 42.3153 12.7386 43.3125 14.75C44.3097 16.7614 44.8082 19.1477 44.8082 21.9091ZM41.7401 21.9091C41.7401 19.642 41.3608 17.7287 40.6023 16.169C39.8523 14.6094 38.8338 13.429 37.5469 12.6278C36.2685 11.8267 34.8366 11.4261 33.2514 11.4261C31.6662 11.4261 30.2301 11.8267 28.9432 12.6278C27.6648 13.429 26.6463 14.6094 25.8878 16.169C25.1378 17.7287 24.7628 19.642 24.7628 21.9091C24.7628 24.1761 25.1378 26.0895 25.8878 27.6491C26.6463 29.2088 27.6648 30.3892 28.9432 31.1903C30.2301 31.9915 31.6662 32.392 33.2514 32.392C34.8366 32.392 36.2685 31.9915 37.5469 31.1903C38.8338 30.3892 39.8523 29.2088 40.6023 27.6491C41.3608 26.0895 41.7401 24.1761 41.7401 21.9091ZM53.3097 8.81818V35H50.1392V8.81818H53.3097ZM80.4279 8.81818V35H77.3597L63.0927 14.4432H62.837V35H59.6665V8.81818H62.7347L77.0529 29.4261H77.3086V8.81818H80.4279ZM89.9425 8.81818V35H86.772V8.81818H89.9425ZM117.061 8.81818V35H113.993L99.7255 14.4432H99.4698V35H96.2994V8.81818H99.3675L113.686 29.4261H113.941V8.81818H117.061ZM141.303 17C141.021 16.1392 140.651 15.3679 140.19 14.6861C139.739 13.9957 139.197 13.4077 138.567 12.9219C137.945 12.4361 137.237 12.0653 136.445 11.8097C135.652 11.554 134.783 11.4261 133.837 11.4261C132.286 11.4261 130.875 11.8267 129.605 12.6278C128.335 13.429 127.325 14.6094 126.575 16.169C125.825 17.7287 125.45 19.642 125.45 21.9091C125.45 24.1761 125.83 26.0895 126.588 27.6491C127.347 29.2088 128.374 30.3892 129.669 31.1903C130.964 31.9915 132.422 32.392 134.041 32.392C135.541 32.392 136.862 32.0724 138.004 31.4332C139.155 30.7855 140.05 29.8736 140.689 28.6974C141.337 27.5128 141.661 26.1193 141.661 24.517L142.632 24.7216H134.757V21.9091H144.729V24.7216C144.729 26.8778 144.268 28.7528 143.348 30.3466C142.436 31.9403 141.175 33.1761 139.564 34.054C137.962 34.9233 136.121 35.358 134.041 35.358C131.723 35.358 129.686 34.8125 127.93 33.7216C126.183 32.6307 124.82 31.0795 123.839 29.0682C122.868 27.0568 122.382 24.6705 122.382 21.9091C122.382 19.8381 122.659 17.9759 123.213 16.3224C123.776 14.6605 124.568 13.2457 125.591 12.0781C126.614 10.9105 127.824 10.0156 129.222 9.39347C130.619 8.77131 132.158 8.46023 133.837 8.46023C135.217 8.46023 136.504 8.66903 137.697 9.08665C138.899 9.49574 139.969 10.0795 140.906 10.8381C141.852 11.5881 142.641 12.4872 143.271 13.5355C143.902 14.5753 144.337 15.7301 144.575 17H141.303ZM161.358 35H158.034L167.647 8.81818H170.92L180.534 35H177.21L169.386 12.9602H169.181L161.358 35ZM162.585 24.7727H175.983V27.5852H162.585V24.7727ZM184.612 8.81818H188.396L197.294 30.5511H197.6L206.498 8.81818H210.282V35H207.316V15.108H207.061L198.879 35H196.015L187.833 15.108H187.578V35H184.612V8.81818ZM238.73 21.9091C238.73 24.6705 238.232 27.0568 237.234 29.0682C236.237 31.0795 234.869 32.6307 233.131 33.7216C231.392 34.8125 229.406 35.358 227.173 35.358C224.94 35.358 222.955 34.8125 221.216 33.7216C219.477 32.6307 218.109 31.0795 217.112 29.0682C216.115 27.0568 215.616 24.6705 215.616 21.9091C215.616 19.1477 216.115 16.7614 217.112 14.75C218.109 12.7386 219.477 11.1875 221.216 10.0966C222.955 9.00568 224.94 8.46023 227.173 8.46023C229.406 8.46023 231.392 9.00568 233.131 10.0966C234.869 11.1875 236.237 12.7386 237.234 14.75C238.232 16.7614 238.73 19.1477 238.73 21.9091ZM235.662 21.9091C235.662 19.642 235.283 17.7287 234.524 16.169C233.774 14.6094 232.756 13.429 231.469 12.6278C230.19 11.8267 228.759 11.4261 227.173 11.4261C225.588 11.4261 224.152 11.8267 222.865 12.6278C221.587 13.429 220.568 14.6094 219.81 16.169C219.06 17.7287 218.685 19.642 218.685 21.9091C218.685 24.1761 219.06 26.0895 219.81 27.6491C220.568 29.2088 221.587 30.3892 222.865 31.1903C224.152 31.9915 225.588 32.392 227.173 32.392C228.759 32.392 230.19 31.9915 231.469 31.1903C232.756 30.3892 233.774 29.2088 234.524 27.6491C235.283 26.0895 235.662 24.1761 235.662 21.9091ZM261.243 8.81818H264.413V26.1534C264.413 27.9432 263.991 29.5412 263.148 30.9474C262.313 32.3452 261.132 33.4489 259.607 34.2585C258.081 35.0597 256.291 35.4602 254.237 35.4602C252.183 35.4602 250.393 35.0597 248.868 34.2585C247.342 33.4489 246.158 32.3452 245.314 30.9474C244.479 29.5412 244.061 27.9432 244.061 26.1534V8.81818H247.232V25.8977C247.232 27.1761 247.513 28.3139 248.075 29.3111C248.638 30.2997 249.439 31.0795 250.479 31.6506C251.527 32.2131 252.78 32.4943 254.237 32.4943C255.695 32.4943 256.947 32.2131 257.996 31.6506C259.044 31.0795 259.845 30.2997 260.399 29.3111C260.962 28.3139 261.243 27.1761 261.243 25.8977V8.81818ZM291.506 8.81818V35H288.438L274.171 14.4432H273.915V35H270.745V8.81818H273.813L288.131 29.4261H288.387V8.81818H291.506ZM296.418 11.6307V8.81818H316.055V11.6307H307.822V35H304.651V11.6307H296.418Z" fill="white"/>
<path d="M73 120H257V196H73V120Z" fill="#D9D9D9"/>
<path d="M98.392 175.358C96.892 175.358 95.5412 175.06 94.3395 174.463C93.1378 173.866 92.1747 173.048 91.4503 172.009C90.7259 170.969 90.3295 169.784 90.2614 168.455H93.3295C93.4489 169.639 93.9858 170.619 94.9403 171.395C95.9034 172.162 97.054 172.545 98.392 172.545C99.4659 172.545 100.42 172.294 101.256 171.791C102.099 171.288 102.76 170.598 103.237 169.72C103.723 168.834 103.966 167.832 103.966 166.716C103.966 165.574 103.714 164.555 103.212 163.661C102.717 162.757 102.036 162.045 101.166 161.526C100.297 161.006 99.304 160.741 98.1875 160.733C97.3864 160.724 96.5639 160.848 95.7202 161.104C94.8764 161.351 94.1818 161.67 93.6364 162.062L90.6705 161.705L92.2557 148.818H105.858V151.631H94.9148L93.9943 159.352H94.1477C94.6847 158.926 95.358 158.572 96.1676 158.291C96.9773 158.01 97.821 157.869 98.6989 157.869C100.301 157.869 101.729 158.253 102.982 159.02C104.243 159.778 105.232 160.818 105.947 162.139C106.672 163.46 107.034 164.969 107.034 166.665C107.034 168.335 106.659 169.827 105.909 171.139C105.168 172.443 104.145 173.474 102.841 174.233C101.537 174.983 100.054 175.358 98.392 175.358ZM121.317 148.818V175H118.147V152.142H117.993L111.601 156.386V153.165L118.147 148.818H121.317ZM137.387 175.358C135.461 175.358 133.82 174.834 132.465 173.786C131.11 172.729 130.074 171.199 129.358 169.196C128.642 167.185 128.284 164.756 128.284 161.909C128.284 159.08 128.642 156.663 129.358 154.661C130.083 152.649 131.123 151.115 132.478 150.058C133.841 148.993 135.478 148.46 137.387 148.46C139.296 148.46 140.928 148.993 142.283 150.058C143.647 151.115 144.686 152.649 145.402 154.661C146.127 156.663 146.489 159.08 146.489 161.909C146.489 164.756 146.131 167.185 145.415 169.196C144.699 171.199 143.664 172.729 142.309 173.786C140.953 174.834 139.313 175.358 137.387 175.358ZM137.387 172.545C139.296 172.545 140.779 171.625 141.836 169.784C142.892 167.943 143.421 165.318 143.421 161.909C143.421 159.642 143.178 157.712 142.692 156.118C142.215 154.524 141.525 153.31 140.621 152.474C139.726 151.639 138.648 151.222 137.387 151.222C135.495 151.222 134.016 152.155 132.951 154.021C131.885 155.879 131.353 158.509 131.353 161.909C131.353 164.176 131.591 166.102 132.069 167.688C132.546 169.273 133.232 170.479 134.127 171.305C135.03 172.132 136.117 172.545 137.387 172.545ZM159.887 175.358C157.961 175.358 156.32 174.834 154.965 173.786C153.61 172.729 152.574 171.199 151.858 169.196C151.142 167.185 150.784 164.756 150.784 161.909C150.784 159.08 151.142 156.663 151.858 154.661C152.583 152.649 153.623 151.115 154.978 150.058C156.341 148.993 157.978 148.46 159.887 148.46C161.796 148.46 163.428 148.993 164.783 150.058C166.147 151.115 167.186 152.649 167.902 154.661C168.627 156.663 168.989 159.08 168.989 161.909C168.989 164.756 168.631 167.185 167.915 169.196C167.199 171.199 166.164 172.729 164.809 173.786C163.453 174.834 161.813 175.358 159.887 175.358ZM159.887 172.545C161.796 172.545 163.279 171.625 164.336 169.784C165.392 167.943 165.921 165.318 165.921 161.909C165.921 159.642 165.678 157.712 165.192 156.118C164.715 154.524 164.025 153.31 163.121 152.474C162.226 151.639 161.148 151.222 159.887 151.222C157.995 151.222 156.516 152.155 155.451 154.021C154.385 155.879 153.853 158.509 153.853 161.909C153.853 164.176 154.091 166.102 154.569 167.688C155.046 169.273 155.732 170.479 156.627 171.305C157.53 172.132 158.617 172.545 159.887 172.545ZM187.603 148.818V175H184.432V148.818H187.603ZM214.721 148.818V175H211.653L197.386 154.443H197.13V175H193.96V148.818H197.028L211.346 169.426H211.602V148.818H214.721ZM221.065 175V148.818H229.912C231.957 148.818 233.636 149.168 234.949 149.866C236.261 150.557 237.233 151.507 237.863 152.717C238.494 153.928 238.809 155.304 238.809 156.847C238.809 158.389 238.494 159.757 237.863 160.95C237.233 162.143 236.265 163.081 234.961 163.763C233.657 164.436 231.991 164.773 229.963 164.773H222.804V161.909H229.86C231.258 161.909 232.383 161.705 233.235 161.295C234.096 160.886 234.718 160.307 235.102 159.557C235.494 158.798 235.69 157.895 235.69 156.847C235.69 155.798 235.494 154.882 235.102 154.098C234.71 153.314 234.083 152.709 233.223 152.283C232.362 151.848 231.224 151.631 229.809 151.631H224.235V175H221.065ZM233.389 163.239L239.832 175H236.15L229.809 163.239H233.389Z" fill="black"/>
<rect x="58" y="254" width="197" height="47" fill="#2A2B2B"/>
<path d="M76.1705 298V271.818H85.3239C87.1477 271.818 88.652 272.134 89.8366 272.764C91.0213 273.386 91.9034 274.226 92.483 275.283C93.0625 276.331 93.3523 277.494 93.3523 278.773C93.3523 279.898 93.152 280.827 92.7514 281.56C92.3594 282.293 91.8395 282.872 91.1918 283.298C90.5526 283.724 89.858 284.04 89.108 284.244V284.5C89.9091 284.551 90.7145 284.832 91.5241 285.344C92.3338 285.855 93.0114 286.588 93.5568 287.543C94.1023 288.497 94.375 289.665 94.375 291.045C94.375 292.358 94.0767 293.538 93.4801 294.587C92.8835 295.635 91.9418 296.466 90.6548 297.08C89.3679 297.693 87.6932 298 85.6307 298H76.1705ZM79.3409 295.188H85.6307C87.7017 295.188 89.1719 294.787 90.0412 293.986C90.919 293.176 91.358 292.196 91.358 291.045C91.358 290.159 91.1321 289.341 90.6804 288.591C90.2287 287.832 89.5852 287.227 88.75 286.776C87.9148 286.315 86.9261 286.085 85.7841 286.085H79.3409V295.188ZM79.3409 283.324H85.2216C86.1761 283.324 87.0369 283.136 87.804 282.761C88.5795 282.386 89.1932 281.858 89.6449 281.176C90.1051 280.494 90.3352 279.693 90.3352 278.773C90.3352 277.622 89.9347 276.646 89.1335 275.845C88.3324 275.036 87.0625 274.631 85.3239 274.631H79.3409V283.324ZM99.5845 298V271.818H115.386V274.631H102.755V283.477H114.567V286.29H102.755V295.188H115.59V298H99.5845ZM141.862 271.818V298H138.793L124.526 277.443H124.271V298H121.1V271.818H124.168L138.487 292.426H138.742V271.818H141.862ZM148.206 298V271.818H164.007V274.631H151.376V283.477H163.189V286.29H151.376V295.188H164.211V298H148.206ZM169.721 298V271.818H185.42V274.631H172.892V283.477H184.244V286.29H172.892V298H169.721ZM194.021 271.818V298H190.85V271.818H194.021ZM198.946 274.631V271.818H218.582V274.631H210.349V298H207.179V274.631H198.946ZM237.793 278.364C237.64 277.068 237.018 276.062 235.927 275.347C234.836 274.631 233.498 274.273 231.913 274.273C230.754 274.273 229.739 274.46 228.87 274.835C228.009 275.21 227.336 275.726 226.85 276.382C226.373 277.038 226.134 277.784 226.134 278.619C226.134 279.318 226.3 279.919 226.633 280.422C226.974 280.916 227.408 281.33 227.937 281.662C228.465 281.986 229.019 282.254 229.599 282.467C230.178 282.672 230.711 282.838 231.197 282.966L233.856 283.682C234.538 283.861 235.296 284.108 236.131 284.423C236.975 284.739 237.781 285.169 238.548 285.714C239.323 286.251 239.962 286.942 240.465 287.786C240.968 288.629 241.219 289.665 241.219 290.892C241.219 292.307 240.849 293.585 240.107 294.727C239.374 295.869 238.3 296.777 236.886 297.45C235.479 298.124 233.771 298.46 231.759 298.46C229.884 298.46 228.261 298.158 226.888 297.553C225.525 296.947 224.451 296.104 223.667 295.021C222.891 293.939 222.452 292.682 222.35 291.25H225.623C225.708 292.239 226.04 293.057 226.62 293.705C227.208 294.344 227.95 294.821 228.844 295.136C229.748 295.443 230.719 295.597 231.759 295.597C232.969 295.597 234.056 295.401 235.019 295.009C235.982 294.608 236.745 294.054 237.308 293.347C237.87 292.631 238.151 291.795 238.151 290.841C238.151 289.972 237.908 289.264 237.423 288.719C236.937 288.173 236.298 287.73 235.505 287.389C234.712 287.048 233.856 286.75 232.935 286.494L229.714 285.574C227.668 284.986 226.049 284.146 224.856 283.055C223.663 281.964 223.066 280.537 223.066 278.773C223.066 277.307 223.462 276.028 224.255 274.938C225.056 273.838 226.13 272.986 227.477 272.381C228.832 271.767 230.344 271.46 232.015 271.46C233.702 271.46 235.202 271.763 236.515 272.368C237.827 272.964 238.867 273.783 239.634 274.822C240.41 275.862 240.819 277.043 240.862 278.364H237.793Z" fill="white"/>
</svg>
