<svg width="1139" height="371" viewBox="0 0 1139 371" fill="none" xmlns="http://www.w3.org/2000/svg">
<path d="M1138.5 282.997L1138.5 370.003" stroke="#FEFEFE"/>
<line x1="565.5" y1="46" x2="565.5" y2="370" stroke="#FEFEFE"/>
<path d="M-4.41517e-06 282.646L1138 282.648" stroke="white"/>
<path d="M411.193 8.81818H414.364V27.5341C414.364 29.2045 414.057 30.6236 413.443 31.7912C412.83 32.9588 411.964 33.8452 410.848 34.4503C409.732 35.0554 408.415 35.358 406.898 35.358C405.466 35.358 404.192 35.098 403.075 34.5781C401.959 34.0497 401.081 33.2997 400.442 32.3281C399.803 31.3565 399.483 30.2017 399.483 28.8636H402.602C402.602 29.6051 402.786 30.2528 403.152 30.8068C403.527 31.3523 404.038 31.7784 404.686 32.0852C405.334 32.392 406.071 32.5455 406.898 32.5455C407.81 32.5455 408.585 32.3537 409.224 31.9702C409.864 31.5866 410.349 31.0241 410.682 30.2827C411.023 29.5327 411.193 28.6165 411.193 27.5341V8.81818ZM442.808 21.9091C442.808 24.6705 442.31 27.0568 441.312 29.0682C440.315 31.0795 438.947 32.6307 437.209 33.7216C435.47 34.8125 433.484 35.358 431.251 35.358C429.018 35.358 427.033 34.8125 425.294 33.7216C423.555 32.6307 422.188 31.0795 421.19 29.0682C420.193 27.0568 419.695 24.6705 419.695 21.9091C419.695 19.1477 420.193 16.7614 421.19 14.75C422.188 12.7386 423.555 11.1875 425.294 10.0966C427.033 9.00568 429.018 8.46023 431.251 8.46023C433.484 8.46023 435.47 9.00568 437.209 10.0966C438.947 11.1875 440.315 12.7386 441.312 14.75C442.31 16.7614 442.808 19.1477 442.808 21.9091ZM439.74 21.9091C439.74 19.642 439.361 17.7287 438.602 16.169C437.852 14.6094 436.834 13.429 435.547 12.6278C434.268 11.8267 432.837 11.4261 431.251 11.4261C429.666 11.4261 428.23 11.8267 426.943 12.6278C425.665 13.429 424.646 14.6094 423.888 16.169C423.138 17.7287 422.763 19.642 422.763 21.9091C422.763 24.1761 423.138 26.0895 423.888 27.6491C424.646 29.2088 425.665 30.3892 426.943 31.1903C428.23 31.9915 429.666 32.392 431.251 32.392C432.837 32.392 434.268 31.9915 435.547 31.1903C436.834 30.3892 437.852 29.2088 438.602 27.6491C439.361 26.0895 439.74 24.1761 439.74 21.9091ZM451.31 8.81818V35H448.139V8.81818H451.31ZM478.428 8.81818V35H475.36L461.093 14.4432H460.837V35H457.667V8.81818H460.735L475.053 29.4261H475.309V8.81818H478.428ZM487.942 8.81818V35H484.772V8.81818H487.942ZM515.061 8.81818V35H511.993L497.725 14.4432H497.47V35H494.299V8.81818H497.368L511.686 29.4261H511.941V8.81818H515.061ZM539.303 17C539.021 16.1392 538.651 15.3679 538.19 14.6861C537.739 13.9957 537.197 13.4077 536.567 12.9219C535.945 12.4361 535.237 12.0653 534.445 11.8097C533.652 11.554 532.783 11.4261 531.837 11.4261C530.286 11.4261 528.875 11.8267 527.605 12.6278C526.335 13.429 525.325 14.6094 524.575 16.169C523.825 17.7287 523.45 19.642 523.45 21.9091C523.45 24.1761 523.83 26.0895 524.588 27.6491C525.347 29.2088 526.374 30.3892 527.669 31.1903C528.964 31.9915 530.422 32.392 532.041 32.392C533.541 32.392 534.862 32.0724 536.004 31.4332C537.155 30.7855 538.05 29.8736 538.689 28.6974C539.337 27.5128 539.661 26.1193 539.661 24.517L540.632 24.7216H532.757V21.9091H542.729V24.7216C542.729 26.8778 542.268 28.7528 541.348 30.3466C540.436 31.9403 539.175 33.1761 537.564 34.054C535.962 34.9233 534.121 35.358 532.041 35.358C529.723 35.358 527.686 34.8125 525.93 33.7216C524.183 32.6307 522.82 31.0795 521.839 29.0682C520.868 27.0568 520.382 24.6705 520.382 21.9091C520.382 19.8381 520.659 17.9759 521.213 16.3224C521.776 14.6605 522.568 13.2457 523.591 12.0781C524.614 10.9105 525.824 10.0156 527.222 9.39347C528.619 8.77131 530.158 8.46023 531.837 8.46023C533.217 8.46023 534.504 8.66903 535.697 9.08665C536.899 9.49574 537.969 10.0795 538.906 10.8381C539.852 11.5881 540.641 12.4872 541.271 13.5355C541.902 14.5753 542.337 15.7301 542.575 17H539.303ZM559.358 35H556.034L565.647 8.81818H568.92L578.534 35H575.21L567.386 12.9602H567.181L559.358 35ZM560.585 24.7727H573.983V27.5852H560.585V24.7727ZM582.612 8.81818H586.396L595.294 30.5511H595.6L604.498 8.81818H608.282V35H605.316V15.108H605.061L596.879 35H594.015L585.833 15.108H585.578V35H582.612V8.81818ZM636.73 21.9091C636.73 24.6705 636.232 27.0568 635.234 29.0682C634.237 31.0795 632.869 32.6307 631.131 33.7216C629.392 34.8125 627.406 35.358 625.173 35.358C622.94 35.358 620.955 34.8125 619.216 33.7216C617.477 32.6307 616.109 31.0795 615.112 29.0682C614.115 27.0568 613.616 24.6705 613.616 21.9091C613.616 19.1477 614.115 16.7614 615.112 14.75C616.109 12.7386 617.477 11.1875 619.216 10.0966C620.955 9.00568 622.94 8.46023 625.173 8.46023C627.406 8.46023 629.392 9.00568 631.131 10.0966C632.869 11.1875 634.237 12.7386 635.234 14.75C636.232 16.7614 636.73 19.1477 636.73 21.9091ZM633.662 21.9091C633.662 19.642 633.283 17.7287 632.524 16.169C631.774 14.6094 630.756 13.429 629.469 12.6278C628.19 11.8267 626.759 11.4261 625.173 11.4261C623.588 11.4261 622.152 11.8267 620.865 12.6278C619.587 13.429 618.568 14.6094 617.81 16.169C617.06 17.7287 616.685 19.642 616.685 21.9091C616.685 24.1761 617.06 26.0895 617.81 27.6491C618.568 29.2088 619.587 30.3892 620.865 31.1903C622.152 31.9915 623.588 32.392 625.173 32.392C626.759 32.392 628.19 31.9915 629.469 31.1903C630.756 30.3892 631.774 29.2088 632.524 27.6491C633.283 26.0895 633.662 24.1761 633.662 21.9091ZM659.243 8.81818H662.413V26.1534C662.413 27.9432 661.991 29.5412 661.148 30.9474C660.313 32.3452 659.132 33.4489 657.607 34.2585C656.081 35.0597 654.291 35.4602 652.237 35.4602C650.183 35.4602 648.393 35.0597 646.868 34.2585C645.342 33.4489 644.158 32.3452 643.314 30.9474C642.479 29.5412 642.061 27.9432 642.061 26.1534V8.81818H645.232V25.8977C645.232 27.1761 645.513 28.3139 646.075 29.3111C646.638 30.2997 647.439 31.0795 648.479 31.6506C649.527 32.2131 650.78 32.4943 652.237 32.4943C653.695 32.4943 654.947 32.2131 655.996 31.6506C657.044 31.0795 657.845 30.2997 658.399 29.3111C658.962 28.3139 659.243 27.1761 659.243 25.8977V8.81818ZM689.506 8.81818V35H686.438L672.171 14.4432H671.915V35H668.745V8.81818H671.813L686.131 29.4261H686.387V8.81818H689.506ZM694.418 11.6307V8.81818H714.055V11.6307H705.822V35H702.651V11.6307H694.418Z" fill="white"/>
<rect x="456" y="254" width="197" height="47" fill="#2A2B2B"/>
<path d="M471.17 292V265.818H480.324C482.148 265.818 483.652 266.134 484.837 266.764C486.021 267.386 486.903 268.226 487.483 269.283C488.063 270.331 488.352 271.494 488.352 272.773C488.352 273.898 488.152 274.827 487.751 275.56C487.359 276.293 486.839 276.872 486.192 277.298C485.553 277.724 484.858 278.04 484.108 278.244V278.5C484.909 278.551 485.714 278.832 486.524 279.344C487.334 279.855 488.011 280.588 488.557 281.543C489.102 282.497 489.375 283.665 489.375 285.045C489.375 286.358 489.077 287.538 488.48 288.587C487.884 289.635 486.942 290.466 485.655 291.08C484.368 291.693 482.693 292 480.631 292H471.17ZM474.341 289.188H480.631C482.702 289.188 484.172 288.787 485.041 287.986C485.919 287.176 486.358 286.196 486.358 285.045C486.358 284.159 486.132 283.341 485.68 282.591C485.229 281.832 484.585 281.227 483.75 280.776C482.915 280.315 481.926 280.085 480.784 280.085H474.341V289.188ZM474.341 277.324H480.222C481.176 277.324 482.037 277.136 482.804 276.761C483.58 276.386 484.193 275.858 484.645 275.176C485.105 274.494 485.335 273.693 485.335 272.773C485.335 271.622 484.935 270.646 484.134 269.845C483.332 269.036 482.063 268.631 480.324 268.631H474.341V277.324ZM494.585 292V265.818H510.386V268.631H497.755V277.477H509.567V280.29H497.755V289.188H510.59V292H494.585ZM536.862 265.818V292H533.793L519.526 271.443H519.271V292H516.1V265.818H519.168L533.487 286.426H533.742V265.818H536.862ZM543.206 292V265.818H559.007V268.631H546.376V277.477H558.189V280.29H546.376V289.188H559.211V292H543.206ZM564.721 292V265.818H580.42V268.631H567.892V277.477H579.244V280.29H567.892V292H564.721ZM589.021 265.818V292H585.85V265.818H589.021ZM593.946 268.631V265.818H613.582V268.631H605.349V292H602.179V268.631H593.946ZM632.793 272.364C632.64 271.068 632.018 270.062 630.927 269.347C629.836 268.631 628.498 268.273 626.913 268.273C625.754 268.273 624.739 268.46 623.87 268.835C623.009 269.21 622.336 269.726 621.85 270.382C621.373 271.038 621.134 271.784 621.134 272.619C621.134 273.318 621.3 273.919 621.633 274.422C621.974 274.916 622.408 275.33 622.937 275.662C623.465 275.986 624.019 276.254 624.599 276.467C625.178 276.672 625.711 276.838 626.197 276.966L628.856 277.682C629.538 277.861 630.296 278.108 631.131 278.423C631.975 278.739 632.781 279.169 633.548 279.714C634.323 280.251 634.962 280.942 635.465 281.786C635.968 282.629 636.219 283.665 636.219 284.892C636.219 286.307 635.849 287.585 635.107 288.727C634.374 289.869 633.3 290.777 631.886 291.45C630.479 292.124 628.771 292.46 626.759 292.46C624.884 292.46 623.261 292.158 621.888 291.553C620.525 290.947 619.451 290.104 618.667 289.021C617.891 287.939 617.452 286.682 617.35 285.25H620.623C620.708 286.239 621.04 287.057 621.62 287.705C622.208 288.344 622.95 288.821 623.844 289.136C624.748 289.443 625.719 289.597 626.759 289.597C627.969 289.597 629.056 289.401 630.019 289.009C630.982 288.608 631.745 288.054 632.308 287.347C632.87 286.631 633.151 285.795 633.151 284.841C633.151 283.972 632.908 283.264 632.423 282.719C631.937 282.173 631.298 281.73 630.505 281.389C629.712 281.048 628.856 280.75 627.935 280.494L624.714 279.574C622.668 278.986 621.049 278.146 619.856 277.055C618.663 275.964 618.066 274.537 618.066 272.773C618.066 271.307 618.462 270.028 619.255 268.938C620.056 267.838 621.13 266.986 622.477 266.381C623.832 265.767 625.344 265.46 627.015 265.46C628.702 265.46 630.202 265.763 631.515 266.368C632.827 266.964 633.867 267.783 634.634 268.822C635.41 269.862 635.819 271.043 635.862 272.364H632.793Z" fill="white"/>
<path d="M471 120H655V196H471V120Z" fill="#D9D9D9"/>
<path d="M496.392 175.358C494.892 175.358 493.541 175.06 492.339 174.463C491.138 173.866 490.175 173.048 489.45 172.009C488.726 170.969 488.33 169.784 488.261 168.455H491.33C491.449 169.639 491.986 170.619 492.94 171.395C493.903 172.162 495.054 172.545 496.392 172.545C497.466 172.545 498.42 172.294 499.256 171.791C500.099 171.288 500.76 170.598 501.237 169.72C501.723 168.834 501.966 167.832 501.966 166.716C501.966 165.574 501.714 164.555 501.212 163.661C500.717 162.757 500.036 162.045 499.166 161.526C498.297 161.006 497.304 160.741 496.188 160.733C495.386 160.724 494.564 160.848 493.72 161.104C492.876 161.351 492.182 161.67 491.636 162.062L488.67 161.705L490.256 148.818H503.858V151.631H492.915L491.994 159.352H492.148C492.685 158.926 493.358 158.572 494.168 158.291C494.977 158.01 495.821 157.869 496.699 157.869C498.301 157.869 499.729 158.253 500.982 159.02C502.243 159.778 503.232 160.818 503.947 162.139C504.672 163.46 505.034 164.969 505.034 166.665C505.034 168.335 504.659 169.827 503.909 171.139C503.168 172.443 502.145 173.474 500.841 174.233C499.537 174.983 498.054 175.358 496.392 175.358ZM519.317 148.818V175H516.147V152.142H515.993L509.601 156.386V153.165L516.147 148.818H519.317ZM535.387 175.358C533.461 175.358 531.82 174.834 530.465 173.786C529.11 172.729 528.074 171.199 527.358 169.196C526.642 167.185 526.284 164.756 526.284 161.909C526.284 159.08 526.642 156.663 527.358 154.661C528.083 152.649 529.123 151.115 530.478 150.058C531.841 148.993 533.478 148.46 535.387 148.46C537.296 148.46 538.928 148.993 540.283 150.058C541.647 151.115 542.686 152.649 543.402 154.661C544.127 156.663 544.489 159.08 544.489 161.909C544.489 164.756 544.131 167.185 543.415 169.196C542.699 171.199 541.664 172.729 540.309 173.786C538.953 174.834 537.313 175.358 535.387 175.358ZM535.387 172.545C537.296 172.545 538.779 171.625 539.836 169.784C540.892 167.943 541.421 165.318 541.421 161.909C541.421 159.642 541.178 157.712 540.692 156.118C540.215 154.524 539.525 153.31 538.621 152.474C537.726 151.639 536.648 151.222 535.387 151.222C533.495 151.222 532.016 152.155 530.951 154.021C529.885 155.879 529.353 158.509 529.353 161.909C529.353 164.176 529.591 166.102 530.069 167.688C530.546 169.273 531.232 170.479 532.127 171.305C533.03 172.132 534.117 172.545 535.387 172.545ZM557.887 175.358C555.961 175.358 554.32 174.834 552.965 173.786C551.61 172.729 550.574 171.199 549.858 169.196C549.142 167.185 548.784 164.756 548.784 161.909C548.784 159.08 549.142 156.663 549.858 154.661C550.583 152.649 551.623 151.115 552.978 150.058C554.341 148.993 555.978 148.46 557.887 148.46C559.796 148.46 561.428 148.993 562.783 150.058C564.147 151.115 565.186 152.649 565.902 154.661C566.627 156.663 566.989 159.08 566.989 161.909C566.989 164.756 566.631 167.185 565.915 169.196C565.199 171.199 564.164 172.729 562.809 173.786C561.453 174.834 559.813 175.358 557.887 175.358ZM557.887 172.545C559.796 172.545 561.279 171.625 562.336 169.784C563.392 167.943 563.921 165.318 563.921 161.909C563.921 159.642 563.678 157.712 563.192 156.118C562.715 154.524 562.025 153.31 561.121 152.474C560.226 151.639 559.148 151.222 557.887 151.222C555.995 151.222 554.516 152.155 553.451 154.021C552.385 155.879 551.853 158.509 551.853 161.909C551.853 164.176 552.091 166.102 552.569 167.688C553.046 169.273 553.732 170.479 554.627 171.305C555.53 172.132 556.617 172.545 557.887 172.545ZM585.603 148.818V175H582.432V148.818H585.603ZM612.721 148.818V175H609.653L595.386 154.443H595.13V175H591.96V148.818H595.028L609.346 169.426H609.602V148.818H612.721ZM619.065 175V148.818H627.912C629.957 148.818 631.636 149.168 632.949 149.866C634.261 150.557 635.233 151.507 635.863 152.717C636.494 153.928 636.809 155.304 636.809 156.847C636.809 158.389 636.494 159.757 635.863 160.95C635.233 162.143 634.265 163.081 632.961 163.763C631.657 164.436 629.991 164.773 627.963 164.773H620.804V161.909H627.86C629.258 161.909 630.383 161.705 631.235 161.295C632.096 160.886 632.718 160.307 633.102 159.557C633.494 158.798 633.69 157.895 633.69 156.847C633.69 155.798 633.494 154.882 633.102 154.098C632.71 153.314 632.083 152.709 631.223 152.283C630.362 151.848 629.224 151.631 627.809 151.631H622.235V175H619.065ZM631.389 163.239L637.832 175H634.15L627.809 163.239H631.389Z" fill="black"/>
<line x1="0.5" y1="283" x2="0.499996" y2="370" stroke="white"/>
</svg>
